<?xml version="1.0" encoding="UTF-8" standalone="no"?>
<!-- Created with Inkscape (http://www.inkscape.org/) -->

<svg
   version="1.1"
   id="svg824"
   width="100"
   height="100"
   viewBox="0 0 100 100"
   sodipodi:docname="folder.svg"
   inkscape:version="1.1.1 (3bf5ae0d25, 2021-09-20)"
   inkscape:export-filename="D:\Projets\Programmation\Arduino\smart-doorbell-homeassistant\folder.png"
   inkscape:export-xdpi="61.439999"
   inkscape:export-ydpi="61.439999"
   xmlns:inkscape="http://www.inkscape.org/namespaces/inkscape"
   xmlns:sodipodi="http://sodipodi.sourceforge.net/DTD/sodipodi-0.dtd"
   xmlns="http://www.w3.org/2000/svg"
   xmlns:svg="http://www.w3.org/2000/svg">
  <defs
     id="defs828" />
  <sodipodi:namedview
     id="namedview826"
     pagecolor="#505050"
     bordercolor="#eeeeee"
     borderopacity="1"
     inkscape:pageshadow="0"
     inkscape:pageopacity="0"
     inkscape:pagecheckerboard="0"
     showgrid="false"
     inkscape:zoom="3.5177528"
     inkscape:cx="35.534049"
     inkscape:cy="22.599655"
     inkscape:window-width="1920"
     inkscape:window-height="1017"
     inkscape:window-x="1912"
     inkscape:window-y="-8"
     inkscape:window-maximized="1"
     inkscape:current-layer="g1451" />
  <g
     inkscape:label="Image"
     id="g830"
     sodipodi:insensitive="true">
    <path
       style="display:none;fill:#fefefe;stroke-width:0.195122"
       d="M 1.5136718e-7,49.951217 V 1.5136719e-7 H 49.951218 99.902435 V 49.951217 99.902435 H 49.951218 1.5136718e-7 Z"
       id="path1122"
       inkscape:label="Background" />
    <g
       id="g1451"
       inkscape:label="Icon"
       transform="translate(0.05163367,0.0549069)">
      <path
         style="display:inline;fill:#00969b;fill-opacity:1;stroke:#000000;stroke-width:1.33039;stroke-miterlimit:4;stroke-dasharray:none;stroke-opacity:1"
         d="m 55.941223,97.261038 c 8.631231,-1.124259 16.424833,-4.387211 23.473408,-9.827623 1.987994,-1.534425 6.14518,-5.632078 7.64039,-7.530979 5.816251,-7.38657 9.291494,-15.752279 10.322799,-24.849349 0.347682,-3.06688 0.142145,-10.072392 -0.381537,-13.004308 C 95.55528,33.981101 92.491255,27.067704 87.440436,20.487804 85.825659,18.384173 81.575089,14.130872 79.414631,12.456841 73.010735,7.4947852 65.893318,4.3420332 57.853656,2.9061252 54.921709,2.3824702 47.916115,2.1769462 44.849349,2.5246152 22.803402,5.0238932 5.5005822,22.010503 2.6413982,43.961212 c -0.392676,3.014677 -0.392676,8.965334 0,11.980011 1.14684,8.804597 4.547079,16.785865 10.2081318,23.961213 1.387024,1.758043 5.392426,5.763445 7.150469,7.15047 7.078388,5.584554 15.093036,9.01966 23.804877,10.202852 2.749764,0.373456 9.287922,0.376301 12.136347,0.0053 z"
         id="path1305"
         inkscape:label="Circle" />
      <g
         id="g1444"
         inkscape:label="Bell"
         style="stroke:#000000;stroke-width:1.13385827;stroke-miterlimit:4;stroke-dasharray:none;stroke-opacity:1">
        <path
           style="display:inline;fill:#fefefe;stroke:#000000;stroke-width:1.13385827;stroke-miterlimit:4;stroke-dasharray:none;stroke-opacity:1"
           d="M 22.439023,72.338846 V 68.97038 l 2.71802,-2.71282 2.718021,-2.712817 0.08322,-11.430909 c 0.0685,-9.409471 0.137061,-11.675057 0.387688,-12.811533 1.740829,-7.89383 6.701578,-13.655597 14.188866,-16.479962 l 1.855406,-0.699899 0.135202,-1.478673 c 0.168652,-1.844494 0.721676,-3.05436 1.850199,-4.047725 2.078816,-1.829847 5.072334,-1.829847 7.151149,0 1.128523,0.993365 1.681547,2.203231 1.850199,4.047725 l 0.135202,1.478673 1.853658,0.706642 c 1.019513,0.388652 2.248781,0.911499 2.731708,1.161879 4.861049,2.520293 8.910167,7.245151 10.649621,12.426895 1.094653,3.260919 1.104362,3.388259 1.196735,15.697145 l 0.08579,11.432074 2.716851,2.711652 2.716853,2.711653 v 3.368466 3.368468 H 49.951218 22.439023 Z"
           id="path1309"
           inkscape:label="top" />
        <path
           style="display:inline;fill:#fefefe;stroke-width:1.13385827;stroke:#000000;stroke-opacity:1;stroke-miterlimit:4;stroke-dasharray:none"
           d="m 47.609754,84.370114 c -0.590244,-0.15792 -1.543533,-0.569216 -2.118423,-0.913989 -1.117221,-0.670021 -2.954747,-2.525769 -2.954747,-2.984048 0,-0.234338 1.141026,-0.276958 7.414634,-0.276958 6.273607,0 7.414633,0.04262 7.414633,0.276958 0,0.458708 -1.83812,2.31445 -2.954747,2.983073 -1.95655,1.171557 -4.54221,1.519397 -6.80135,0.914964 z"
           id="path1307"
           inkscape:label="bottom" />
      </g>
      <path
         id="circle1011"
         style="fill:#00969b;fill-opacity:1;stroke-width:0.0902831"
         d="m 49.948382,36.832719 c -6.081199,0 -11.777931,2.391635 -16.040285,6.733711 -0.644171,0.656269 -0.634292,1.709832 0.02189,2.354 0.324116,0.318158 0.746283,0.47673 1.167273,0.476639 0.431192,0 0.860806,-0.16655 1.186729,-0.498522 3.631185,-3.698989 8.484313,-5.734235 13.664396,-5.734235 5.180354,0 10.033572,2.035427 13.664397,5.734235 0.644261,0.656265 1.697825,0.665965 2.354002,0.02187 0.656179,-0.644168 0.665966,-1.697735 0.02189,-2.353999 -4.262177,-4.341883 -9.958819,-6.7337 -16.040288,-6.7337 z m 0,6.244917 c -4.598841,0 -8.999932,1.962853 -12.07642,5.386479 -0.614556,0.683987 -0.560051,1.736922 0.124024,2.351572 0.318068,0.285837 0.71734,0.425569 1.113773,0.425569 0.45602,-9.1e-5 0.909076,-0.186108 1.237796,-0.552024 2.44586,-2.721854 5.945534,-4.282435 9.600827,-4.282435 3.655292,0 7.154876,1.560668 9.600826,4.282435 0.614647,0.683983 1.667675,0.741011 2.351569,0.126455 0.683985,-0.61465 0.73858,-1.667675 0.124024,-2.351572 -3.076668,-3.423713 -7.47767,-5.386479 -12.076419,-5.386479 z m 0,6.242481 c -3.219315,0 -6.260793,1.567031 -8.134439,4.190026 -0.534566,0.748267 -0.361516,1.787913 0.38666,2.322389 0.29333,0.209547 0.632914,0.311273 0.967865,0.311273 0.519488,0 1.032116,-0.243089 1.356955,-0.697931 1.250059,-1.749958 3.276658,-2.794164 5.422959,-2.794164 2.146481,0 4.17308,1.044297 5.422959,2.794164 0.534385,0.748081 1.574032,0.921225 2.322388,0.386658 0.748266,-0.534476 0.923567,-1.574122 0.389091,-2.322389 -1.873465,-2.623176 -4.914943,-4.190026 -8.134438,-4.190026 z m 0,6.244913 a 3.7462068,3.7462068 0 0 0 -3.747436,3.745002 3.7462068,3.7462068 0 0 0 3.747436,3.747436 3.7462068,3.7462068 0 0 0 3.745002,-3.747436 3.7462068,3.7462068 0 0 0 -3.745002,-3.745002 z"
         inkscape:label="Wifi" />
    </g>
  </g>
</svg>
